<?xml version="1.0" encoding="UTF-8"?>
<svg width="149px" height="57px" viewBox="0 0 149 57" version="1.1" xmlns="http://www.w3.org/2000/svg" xmlns:xlink="http://www.w3.org/1999/xlink">
    <!-- Generator: Sketch 53.1 (72631) - https://sketchapp.com -->
    <title>Logo / logo light Copy</title>
    <desc>Created with Sketch.</desc>
    <defs>
        <linearGradient x1="50%" y1="0%" x2="50%" y2="100%" id="linearGradient-1">
            <stop stop-color="#AEC37D" offset="0%"></stop>
            <stop stop-color="#2D4208" offset="100%"></stop>
        </linearGradient>
        <linearGradient x1="50%" y1="32.3750908%" x2="50%" y2="121.747979%" id="linearGradient-2">
            <stop stop-color="#FDC566" offset="0%"></stop>
            <stop stop-color="#9D160A" offset="100%"></stop>
        </linearGradient>
        <polygon id="path-3" points="16.6442066 16.5 -3.90798505e-14 33.1059908 16.6442066 50.7185562 31.8682234 33.1059908"></polygon>
        <filter x="-26.7%" y="-19.0%" width="153.3%" height="149.7%" filterUnits="objectBoundingBox" id="filter-4">
            <feOffset dx="0" dy="2" in="SourceAlpha" result="shadowOffsetOuter1"></feOffset>
            <feGaussianBlur stdDeviation="2.5" in="shadowOffsetOuter1" result="shadowBlurOuter1"></feGaussianBlur>
            <feColorMatrix values="0 0 0 0 0   0 0 0 0 0   0 0 0 0 0  0 0 0 0.5 0" type="matrix" in="shadowBlurOuter1"></feColorMatrix>
        </filter>
    </defs>
    <g id="Page-2" stroke="none" stroke-width="1" fill="none" fill-rule="evenodd">
        <g id="Icons" transform="translate(-570.000000, -506.000000)">
            <g id="Logo-/-logo-light" transform="translate(574.000000, 506.000000)">
                <g id="Logo-Proposal-Copy">
                    <polygon id="Path-3-Copy-2" fill="url(#linearGradient-1)" points="16.6442066 16.5 10.8942066 7.31241292 20.3942066 3.90798505e-14"></polygon>
                    <g id="Path-10">
                        <use fill="black" fill-opacity="1" filter="url(#filter-4)" xlink:href="#path-3"></use>
                        <use fill="url(#linearGradient-2)" fill-rule="evenodd" xlink:href="#path-3"></use>
                    </g>
                    <path d="M35.3942066,42.5 L35.3942066,25 L37.2442066,25 L37.2442066,40.65 L45.8692066,40.65 L45.8692066,42.5 L35.3942066,42.5 Z M57.6692066,40.675 C57.0858704,41.3083365 56.4108771,41.7874984 55.6442066,42.1125 C54.8775361,42.4375016 53.9525454,42.6 52.8692066,42.6 C51.8692016,42.6 50.9942104,42.4291684 50.2442066,42.0875 C49.4942029,41.7458316 48.8692091,41.2833362 48.3692066,40.7 C47.8692041,40.1166638 47.4942079,39.4500038 47.2442066,38.7 C46.9942054,37.9499962 46.8692066,37.1583375 46.8692066,36.325 C46.8692066,35.2249945 47.0192051,34.2708374 47.3192066,33.4625 C47.6192081,32.6541626 48.0275374,31.983336 48.5442066,31.45 C49.0608759,30.916664 49.6608699,30.5208346 50.3442066,30.2625 C51.0275434,30.0041654 51.7525361,29.875 52.5192066,29.875 C54.3525491,29.875 55.7358686,30.4374944 56.6692066,31.5625 C57.6025446,32.6875056 58.0525401,34.3249893 58.0192066,36.475 L48.6442066,36.475 C48.6942069,37.8916737 49.1025361,39.0166625 49.8692066,39.85 C50.6358771,40.6833375 51.6775334,41.1 52.9942066,41.1 C53.7275436,41.1 54.3942036,40.9791679 54.9942066,40.7375 C55.5942096,40.4958321 56.1358709,40.108336 56.6192066,39.575 L57.6692066,40.675 Z M56.2692066,35 C56.2692066,34.4833308 56.1900408,34.0000023 56.0317066,33.55 C55.8733725,33.0999977 55.6483748,32.7166682 55.3567066,32.4 C55.0650385,32.0833317 54.6858756,31.8291676 54.2192066,31.6375 C53.7525376,31.4458324 53.2108764,31.35 52.5942066,31.35 C51.9608701,31.35 51.4150423,31.4458324 50.9567066,31.6375 C50.498371,31.8291676 50.1358746,32.0749985 49.8692066,32.375 C49.6025386,32.6750015 49.3567078,33.0541644 49.1317066,33.5125 C48.9067055,33.9708356 48.7608736,34.466664 48.6942066,35 L56.2692066,35 Z M67.5442066,37.075 C67.0275374,36.8416655 66.4858761,36.7041669 65.9192066,36.6625 C65.3525371,36.6208331 64.7775429,36.6 64.1942066,36.6 C63.7775379,36.6 63.3692086,36.6374996 62.9692066,36.7125 C62.5692046,36.7875004 62.2067083,36.9166657 61.8817066,37.1 C61.556705,37.2833342 61.2942076,37.5333318 61.0942066,37.85 C60.8942056,38.1666683 60.7942066,38.5666643 60.7942066,39.05 C60.7942066,39.7500035 61.056704,40.2749982 61.5817066,40.625 C62.1067093,40.9750018 62.8358686,41.15 63.7692066,41.15 C64.5358771,41.15 65.24837,41.0125014 65.9067066,40.7375 C66.5650433,40.4624986 67.1108711,39.9750035 67.5442066,39.275 L67.5442066,37.075 Z M67.5442066,42.5 L67.5442066,41.175 C67.2942054,41.508335 67.0150415,41.7708324 66.7067066,41.9625 C66.3983718,42.1541676 66.073375,42.2999995 65.7317066,42.4 C65.3900383,42.5000005 65.0233753,42.5624999 64.6317066,42.5875 C64.240038,42.6125001 63.8275421,42.625 63.3942066,42.625 C62.7775369,42.625 62.2067093,42.5500008 61.6817066,42.4 C61.156704,42.2499993 60.6983753,42.0250015 60.3067066,41.725 C59.915038,41.4249985 59.6108744,41.0541689 59.3942066,40.6125 C59.1775389,40.1708311 59.0692066,39.6583362 59.0692066,39.075 C59.0692066,38.3749965 59.198372,37.7666692 59.4567066,37.25 C59.7150413,36.7333308 60.0650378,36.3041684 60.5067066,35.9625 C60.9483755,35.6208316 61.4608704,35.3666675 62.0442066,35.2 C62.6275429,35.0333325 63.2442034,34.95 63.8942066,34.95 C64.5608766,34.95 65.2025369,34.9749998 65.8192066,35.025 C66.4358764,35.0750003 67.0108706,35.199999 67.5442066,35.4 L67.5442066,34.375 C67.5442066,33.4249952 67.2483763,32.6958359 66.6567066,32.1875 C66.065037,31.6791641 65.2442119,31.425 64.1942066,31.425 C63.5275366,31.425 62.9650423,31.5041659 62.5067066,31.6625 C62.048371,31.8208341 61.5942089,32.1833305 61.1442066,32.75 L59.9192066,31.7 C60.4525426,31.0666635 61.0608699,30.6041681 61.7442066,30.3125 C62.4275434,30.0208319 63.2692016,29.875 64.2692066,29.875 C65.0025436,29.875 65.6775369,29.9666658 66.2942066,30.15 C66.9108764,30.3333343 67.4400378,30.6083315 67.8817066,30.975 C68.3233755,31.3416685 68.6650388,31.791664 68.9067066,32.325 C69.1483745,32.858336 69.2692066,33.4749965 69.2692066,34.175 L69.2692066,42.5 L67.5442066,42.5 Z M79.0192066,42.5 L79.0192066,34.5 C79.0192066,33.4499948 78.7067098,32.6625026 78.0817066,32.1375 C77.4567035,31.6124974 76.6858779,31.35 75.7692066,31.35 C75.2858709,31.35 74.8483753,31.4458324 74.4567066,31.6375 C74.065038,31.8291676 73.7150415,32.0708319 73.4067066,32.3625 C73.0983718,32.6541681 72.8317078,32.966665 72.6067066,33.3 C72.3817055,33.633335 72.1858741,33.9416652 72.0192066,34.225 L72.0192066,42.5 L70.2692066,42.5 L70.2692066,29.975 L72.0192066,29.975 L72.0192066,31.675 C72.4192086,31.141664 72.9608699,30.6875019 73.6442066,30.3125 C74.3275434,29.9374981 75.1608684,29.75 76.1442066,29.75 C76.7775431,29.75 77.3733705,29.8458324 77.9317066,30.0375 C78.4900428,30.2291676 78.9775379,30.5083315 79.3942066,30.875 C79.8108754,31.2416685 80.1400388,31.6999972 80.3817066,32.25 C80.6233745,32.8000028 80.7442066,33.4333297 80.7442066,34.15 L80.7442066,42.5 L79.0192066,42.5 Z M95.4942066,42.5 L95.4942066,28.65 L89.5442066,38.35 L83.5192066,28.85 L83.5192066,42.5 L81.7442066,42.5 L81.7442066,25 L83.1692066,25 L89.5442066,35.175 L95.9192066,25 L97.3192066,25 L97.3192066,42.5 L95.4942066,42.5 Z M106.794207,37.075 C106.277537,36.8416655 105.735876,36.7041669 105.169207,36.6625 C104.602537,36.6208331 104.027543,36.6 103.444207,36.6 C103.027538,36.6 102.619209,36.6374996 102.219207,36.7125 C101.819205,36.7875004 101.456708,36.9166657 101.131707,37.1 C100.806705,37.2833342 100.544208,37.5333318 100.344207,37.85 C100.144206,38.1666683 100.044207,38.5666643 100.044207,39.05 C100.044207,39.7500035 100.306704,40.2749982 100.831707,40.625 C101.356709,40.9750018 102.085869,41.15 103.019207,41.15 C103.785877,41.15 104.49837,41.0125014 105.156707,40.7375 C105.815043,40.4624986 106.360871,39.9750035 106.794207,39.275 L106.794207,37.075 Z M106.794207,42.5 L106.794207,41.175 C106.544205,41.508335 106.265042,41.7708324 105.956707,41.9625 C105.648372,42.1541676 105.323375,42.2999995 104.981707,42.4 C104.640038,42.5000005 104.273375,42.5624999 103.881707,42.5875 C103.490038,42.6125001 103.077542,42.625 102.644207,42.625 C102.027537,42.625 101.456709,42.5500008 100.931707,42.4 C100.406704,42.2499993 99.9483753,42.0250015 99.5567066,41.725 C99.165038,41.4249985 98.8608744,41.0541689 98.6442066,40.6125 C98.4275389,40.1708311 98.3192066,39.6583362 98.3192066,39.075 C98.3192066,38.3749965 98.448372,37.7666692 98.7067066,37.25 C98.9650413,36.7333308 99.3150378,36.3041684 99.7567066,35.9625 C100.198376,35.6208316 100.71087,35.3666675 101.294207,35.2 C101.877543,35.0333325 102.494203,34.95 103.144207,34.95 C103.810877,34.95 104.452537,34.9749998 105.069207,35.025 C105.685876,35.0750003 106.260871,35.199999 106.794207,35.4 L106.794207,34.375 C106.794207,33.4249952 106.498376,32.6958359 105.906707,32.1875 C105.315037,31.6791641 104.494212,31.425 103.444207,31.425 C102.777537,31.425 102.215042,31.5041659 101.756707,31.6625 C101.298371,31.8208341 100.844209,32.1833305 100.394207,32.75 L99.1692066,31.7 C99.7025426,31.0666635 100.31087,30.6041681 100.994207,30.3125 C101.677543,30.0208319 102.519202,29.875 103.519207,29.875 C104.252544,29.875 104.927537,29.9666658 105.544207,30.15 C106.160876,30.3333343 106.690038,30.6083315 107.131707,30.975 C107.573376,31.3416685 107.915039,31.791664 108.156707,32.325 C108.398375,32.858336 108.519207,33.4749965 108.519207,34.175 L108.519207,42.5 L106.794207,42.5 Z M118.269207,42.5 L118.269207,34.5 C118.269207,33.4499948 117.95671,32.6625026 117.331707,32.1375 C116.706704,31.6124974 115.935878,31.35 115.019207,31.35 C114.535871,31.35 114.098375,31.4458324 113.706707,31.6375 C113.315038,31.8291676 112.965042,32.0708319 112.656707,32.3625 C112.348372,32.6541681 112.081708,32.966665 111.856707,33.3 C111.631706,33.633335 111.435874,33.9416652 111.269207,34.225 L111.269207,42.5 L109.519207,42.5 L109.519207,29.975 L111.269207,29.975 L111.269207,31.675 C111.669209,31.141664 112.21087,30.6875019 112.894207,30.3125 C113.577543,29.9374981 114.410868,29.75 115.394207,29.75 C116.027543,29.75 116.623371,29.8458324 117.181707,30.0375 C117.740043,30.2291676 118.227538,30.5083315 118.644207,30.875 C119.060875,31.2416685 119.390039,31.6999972 119.631707,32.25 C119.873375,32.8000028 119.994207,33.4333297 119.994207,34.15 L119.994207,42.5 L118.269207,42.5 Z M130.119207,42.225 C129.685871,42.3416673 129.256709,42.433333 128.831707,42.5 C128.406705,42.566667 127.969209,42.6 127.519207,42.6 C126.685869,42.6 125.877544,42.4791679 125.094207,42.2375 C124.310869,41.9958321 123.615043,41.6166693 123.006707,41.1 C122.39837,40.5833308 121.910875,39.925004 121.544207,39.125 C121.177538,38.324996 120.994207,37.3666723 120.994207,36.25 C120.994207,35.3333287 121.144205,34.4833372 121.444207,33.7 C121.744208,32.9166628 122.181704,32.2416695 122.756707,31.675 C123.33171,31.1083305 124.023369,30.6666683 124.831707,30.35 C125.640044,30.0333318 126.560868,29.875 127.594207,29.875 C128.994214,29.875 130.419199,30.0999977 131.869207,30.55 L131.869207,43.05 C131.869207,44.0333382 131.727541,44.8666633 131.444207,45.55 C131.160872,46.2333367 130.765043,46.7916645 130.256707,47.225 C129.748371,47.6583355 129.14421,47.974999 128.444207,48.175 C127.744203,48.375001 126.969211,48.475 126.119207,48.475 C125.035868,48.475 124.085877,48.2875019 123.269207,47.9125 C122.452536,47.5374981 121.74421,47.0333365 121.144207,46.4 L122.294207,45.15 C123.260878,46.2500055 124.552532,46.8 126.169207,46.8 C127.48588,46.8 128.47337,46.5291694 129.131707,45.9875 C129.790043,45.4458306 130.119207,44.5500062 130.119207,43.3 L130.119207,42.225 Z M122.819207,36.225 C122.819207,37.7916745 123.256702,38.9958291 124.131707,39.8375 C125.006711,40.6791709 126.185866,41.1 127.669207,41.1 C128.069209,41.1 128.477538,41.0541671 128.894207,40.9625 C129.310875,40.8708329 129.719205,40.758334 130.119207,40.625 L130.119207,31.775 C129.685871,31.6249992 129.248376,31.5208336 128.806707,31.4625 C128.365038,31.4041664 127.910876,31.375 127.444207,31.375 C125.977533,31.375 124.840044,31.8208289 124.031707,32.7125 C123.223369,33.6041711 122.819207,34.7749927 122.819207,36.225 Z M142.694207,36.3 C142.694207,35.5833298 142.619207,34.9208364 142.469207,34.3125 C142.319206,33.7041636 142.085875,33.1750023 141.769207,32.725 C141.452538,32.2749977 141.040043,31.9208346 140.531707,31.6625 C140.023371,31.4041654 139.410877,31.275 138.694207,31.275 C137.977536,31.275 137.369209,31.3999987 136.869207,31.65 C136.369204,31.9000012 135.960875,32.2458311 135.644207,32.6875 C135.327538,33.1291689 135.094207,33.6583302 134.944207,34.275 C134.794206,34.8916697 134.719207,35.5583297 134.719207,36.275 C134.719207,36.9750035 134.794206,37.6333303 134.944207,38.25 C135.094207,38.8666697 135.327538,39.3999977 135.644207,39.85 C135.960875,40.3000022 136.369204,40.6541654 136.869207,40.9125 C137.369209,41.1708346 137.977536,41.3 138.694207,41.3 C139.410877,41.3 140.023371,41.1750013 140.531707,40.925 C141.040043,40.6749988 141.452538,40.3250022 141.769207,39.875 C142.085875,39.4249978 142.319206,38.8958364 142.469207,38.2875 C142.619207,37.6791636 142.694207,37.0166703 142.694207,36.3 Z M144.544207,36.325 C144.544207,37.2250045 144.423375,38.0624961 144.181707,38.8375 C143.940039,39.6125039 143.577542,40.2874971 143.094207,40.8625 C142.610871,41.4375029 142.002544,41.8874984 141.269207,42.2125 C140.53587,42.5375016 139.677545,42.7 138.694207,42.7 C137.710868,42.7 136.85671,42.5291684 136.131707,42.1875 C135.406703,41.8458316 134.802542,41.3833362 134.319207,40.8 C133.835871,40.2166638 133.473375,39.5333373 133.231707,38.75 C132.990039,37.9666627 132.869207,37.1333377 132.869207,36.25 C132.869207,35.3499955 132.990039,34.5125039 133.231707,33.7375 C133.473375,32.9624961 133.835871,32.2875029 134.319207,31.7125 C134.802542,31.1374971 135.406703,30.6875016 136.131707,30.3625 C136.85671,30.0374984 137.710868,29.875 138.694207,29.875 C139.677545,29.875 140.53587,30.041665 141.269207,30.375 C142.002544,30.708335 142.610871,31.1666638 143.094207,31.75 C143.577542,32.3333363 143.940039,33.0166627 144.181707,33.8 C144.423375,34.5833372 144.544207,35.4249955 144.544207,36.325 Z" id="LeanMango" fill="#FFFFFF" fill-rule="nonzero"></path>
                </g>
            </g>
        </g>
    </g>
</svg>