<?xml version="1.0" encoding="UTF-8"?>
<svg width="87px" height="98px" viewBox="0 0 87 98" version="1.1" xmlns="http://www.w3.org/2000/svg" xmlns:xlink="http://www.w3.org/1999/xlink">
    <!-- Generator: Sketch 53.1 (72631) - https://sketchapp.com -->
    <title>Order</title>
    <desc>Created with Sketch.</desc>
    <g id="Symbols" stroke="none" stroke-width="1" fill="none" fill-rule="evenodd">
        <g id="UI-/-Landing-Page-/-Line-Icons" transform="translate(-21.000000, -15.000000)">
            <g id="Order" transform="translate(21.000000, 16.000000)">
                <rect id="Rectangle" stroke="#2C3E50" stroke-width="1.44" x="0.72" y="8.72" width="67.56" height="87.56"></rect>
                <g id="Content" transform="translate(8.000000, 21.000000)" fill="#2C3E50">
                    <rect id="Rectangle" x="0" y="0" width="10" height="10" rx="2"></rect>
                    <rect id="Rectangle-Copy-36" x="0" y="17" width="10" height="10" rx="2"></rect>
                    <rect id="Rectangle-Copy-37" x="0" y="34" width="10" height="10" rx="2"></rect>
                    <rect id="Rectangle-Copy-38" x="0" y="51" width="10" height="10" rx="2"></rect>
                    <rect id="Rectangle" x="15" y="0" width="21" height="3" rx="1.5"></rect>
                    <rect id="Rectangle-Copy-39" x="15" y="7" width="21" height="3" rx="1.5"></rect>
                    <rect id="Rectangle-Copy-40" x="15" y="17" width="21" height="3" rx="1.5"></rect>
                    <rect id="Rectangle-Copy-41" x="15" y="24" width="21" height="3" rx="1.5"></rect>
                    <rect id="Rectangle-Copy-44" x="15" y="51" width="21" height="3" rx="1.5"></rect>
                    <rect id="Rectangle-Copy-45" x="15" y="58" width="21" height="3" rx="1.5"></rect>
                    <rect id="Rectangle-Copy-42" x="15" y="34" width="39" height="3" rx="1.5"></rect>
                </g>
                <rect id="Rectangle-Copy-43" fill="#2C3E50" x="23" y="62" width="39" height="3" rx="1.5"></rect>
                <g id="Group-4" transform="translate(23.000000, 0.000000)">
                    <rect id="Rectangle" fill="#2C3E50" x="0" y="2" width="24" height="11" rx="2"></rect>
                    <path d="M5.05747024,3 L5.05747024,3 C4.88402162,1.52676958 5.93770296,0.191872478 7.41093338,0.0184238651 C7.515169,0.00615183779 7.62003433,-8.68898398e-16 7.72498987,-8.8817842e-16 L15.6728389,-7.99360578e-15 C16.9997655,-9.41590578e-15 18.075452,1.07568652 18.075452,2.40261309 C18.075452,2.60411823 18.0501023,2.80482296 18,3 L18,3" id="Path-14" stroke="#2C3E50" stroke-width="2"></path>
                </g>
                <path d="M20.5252545,11.6306901 L5.44749858,11.6306901 C4.34292908,11.6306901 3.44749858,12.5261206 3.44749858,13.6306901 L3.44749858,88.5241735 C3.44749858,89.628743 4.34292908,90.5241735 5.44749858,90.5241735 L47,90.5241735 C48.1045695,90.5241735 49,89.628743 49,88.5241735 L49,77 C49,75.8954305 49.8954305,75 51,75 L63.5967081,75 C64.7012776,75 65.5967081,74.1045695 65.5967081,73 L65.5967081,50.6937345 L65.5967081,13.9691726 C65.5967081,13.3486855 65.3499153,12.7536772 64.9107467,12.315345 L64.8103396,12.2151292 C64.435377,11.8408807 63.9272471,11.6306901 63.3974747,11.6306901 L49.3392352,11.6306901 C48.7452995,11.6306901 48.1820879,11.8946688 47.8021048,12.3511471 L47.0292866,13.279543 C46.6493034,13.7360213 46.0860919,14 45.4921562,14 L24.1911089,14 C23.4571848,14 22.7822164,13.5980196 22.4326059,12.9527157 L22.2837575,12.6779744 C21.934147,12.0326705 21.2591786,11.6306901 20.5252545,11.6306901 Z" id="Path-15" stroke="#2C3E50" stroke-width="1.44"></path>
                <path d="M53,77 L66,77 L51,91.7639078 L51,79 C51,77.8954305 51.8954305,77 53,77 Z" id="Rectangle" fill="#2C3E50"></path>
                <g id="Checkmark" transform="translate(51.000000, 14.000000)">
                    <circle id="Oval" fill="#2C3E50" cx="18" cy="18" r="18"></circle>
                    <polyline id="Path-16" stroke="#FFFFFF" stroke-width="4.5" points="9 19.3488684 16.9335878 27 28 9"></polyline>
                </g>
            </g>
        </g>
    </g>
</svg>