<?xml version="1.0" encoding="UTF-8"?>
<svg width="121px" height="91px" viewBox="0 0 121 91" version="1.1" xmlns="http://www.w3.org/2000/svg" xmlns:xlink="http://www.w3.org/1999/xlink">
    <!-- Generator: Sketch 53.1 (72631) - https://sketchapp.com -->
    <title>programming icon</title>
    <desc>Created with Sketch.</desc>
    <g id="Symbols" stroke="none" stroke-width="1" fill="none" fill-rule="evenodd">
        <g id="UI-/-Landing-Page-/-Line-Icons" transform="translate(-4.000000, -18.000000)">
            <g id="programming-icon" transform="translate(4.000000, 18.000000)">
                <rect id="Rectangle" stroke="#2C3E50" stroke-width="1.44" x="0.72" y="0.72" width="119.56" height="89.56"></rect>
                <rect id="Rectangle" fill="#2C3E50" x="5" y="4" width="4" height="4"></rect>
                <rect id="Rectangle-Copy-21" fill="#2C3E50" x="5" y="16" width="4" height="4" rx="2"></rect>
                <rect id="Rectangle-Copy-29" fill="#2C3E50" x="13" y="16" width="10" height="4" rx="2"></rect>
                <rect id="Rectangle-Copy-30" fill="#2C3E50" x="13" y="28" width="10" height="4" rx="2"></rect>
                <rect id="Rectangle-Copy-31" fill="#2C3E50" x="13" y="40" width="10" height="4" rx="2"></rect>
                <rect id="Rectangle-Copy-33" fill="#2C3E50" x="13" y="76" width="10" height="4" rx="2"></rect>
                <rect id="Rectangle-Copy-32" fill="#2C3E50" x="13" y="52" width="10" height="4" rx="2"></rect>
                <rect id="Rectangle-Copy-23" fill="#2C3E50" x="5" y="28" width="4" height="4" rx="2"></rect>
                <rect id="Rectangle-Copy-25" fill="#2C3E50" x="5" y="40" width="4" height="4" rx="2"></rect>
                <rect id="Rectangle-Copy-28" fill="#2C3E50" x="5" y="76" width="4" height="4" rx="2"></rect>
                <rect id="Rectangle-Copy-27" fill="#2C3E50" x="5" y="52" width="4" height="4" rx="2"></rect>
                <rect id="Rectangle-Copy-22" fill="#2C3E50" x="27" y="16" width="80" height="4" rx="2"></rect>
                <rect id="Rectangle-Copy-24" fill="#2C3E50" x="27" y="28" width="80" height="4" rx="2"></rect>
                <rect id="Rectangle-Copy-26" fill="#2C3E50" x="27" y="40" width="80" height="4" rx="2"></rect>
                <rect id="Rectangle-Copy-34" fill="#2C3E50" x="27" y="76" width="80" height="4" rx="2"></rect>
                <rect id="Rectangle-Copy-19" fill="#2C3E50" x="13" y="4" width="4" height="4"></rect>
                <rect id="Rectangle-Copy-20" fill="#2C3E50" x="21" y="4" width="4" height="4"></rect>
                <g id="Group-2" transform="translate(43.000000, 48.000000)" stroke="#2C3E50" stroke-linecap="round" stroke-width="2.2">
                    <polyline id="Path-12" points="9.61849324 3.02829215 -5.68434189e-14 11.6013268 9.61849324 19.5396768"></polyline>
                    <polyline id="Path-12-Copy" transform="translate(29.965497, 11.283984) scale(-1, 1) translate(-29.965497, -11.283984) " points="34.7747432 3.02829215 25.15625 11.6013268 34.7747432 19.5396768"></polyline>
                    <path d="M13.1958764,22.9347227 L22.0481654,7.63833441e-14" id="Path-13"></path>
                </g>
                <path d="M1.5,10.5 L119.5,10.5" id="Line-8" stroke="#2C3E50" stroke-width="1.44" stroke-linecap="square"></path>
            </g>
        </g>
    </g>
</svg>