<svg height="96" viewBox="0 0 126 96" width="126" xmlns="http://www.w3.org/2000/svg"><g fill="none" fill-rule="evenodd"><path d="m61.103496 7.28437h6.562579v27.213159h-6.562579z" stroke="#2c3e50" stroke-width="1.1088"/><path d="m44.932361 69.262611h2.4658v2.523739h-2.4658z" fill="#2c3e50"/><path d="m101.652211 2.517308h8.754401v4.779924h-8.754401z" stroke="#2c3e50" stroke-width="1.1088"/><path d="m55.343517 69.262611h2.4658v2.523739h-2.4658z" fill="#2c3e50"/><path d="m65.754674 69.262611h2.4658v2.523739h-2.4658z" fill="#2c3e50"/><path d="m76.165831 69.262611h2.4658v2.523739h-2.4658z" fill="#2c3e50"/><path d="m86.576987 69.262611h2.4658v2.523739h-2.4658z" fill="#2c3e50"/><path d="m96.988144 69.262611h2.4658v2.523739h-2.4658z" fill="#2c3e50"/><path d="m50.137939 69.262611h2.4658v2.523739h-2.4658z" fill="#2c3e50"/><path d="m60.549096 69.262611h2.4658v2.523739h-2.4658z" fill="#2c3e50"/><path d="m70.960252 69.262611h2.4658v2.523739h-2.4658z" fill="#2c3e50"/><path d="m81.371409 69.262611h2.4658v2.523739h-2.4658z" fill="#2c3e50"/><path d="m91.782566 69.262611h2.4658v2.523739h-2.4658z" fill="#2c3e50"/><path d="m102.193722 69.262611h2.4658v2.523739h-2.4658z" fill="#2c3e50"/><path d="m6.5754674 89.3123145h118.4954016" stroke="#2c3e50" stroke-linecap="square" stroke-width="1.1088"/><path d="m.5544 63.367456h21.083403v19.361526h-21.083403z" stroke="#2c3e50" stroke-width="1.1088"/><path d="m4.657623 67.860534h2.4658v2.523739h-2.4658z" fill="#2c3e50"/><path d="m4.657623 71.78635h2.4658v2.523739h-2.4658z" fill="#2c3e50"/><path d="m.5544 38.410483h21.083403v19.361526h-21.083403z" stroke="#2c3e50" stroke-width="1.1088"/><path d="m4.657623 46.548961h2.4658v2.804154h-2.4658z" fill="#2c3e50"/><path d="m4.657623 42.623145h2.4658v2.523739h-2.4658z" fill="#2c3e50"/><g stroke="#2c3e50"><path d="m42.877527 23.6951039h12.6029792" stroke-linecap="square" stroke-width="1.1088"/><path d="m113.837779 61.2707715h7.808368" stroke-linecap="square" stroke-width="1.1088"/><path d="m.5544 10.088525h24.371136v22.446096h-24.371136z" stroke-width="1.1088"/><rect height="28.054405" rx="2.66112" stroke-width="1.1088" width="27.384892" x="75.350342" y="32.521759"/><rect height="22.726512" rx="2.66112" stroke-width="1.1088" width="27.384892" x="75.350342" y="32.521759"/><rect height="20.202773" rx="2.66112" stroke-width="1.1088" width="16.151802" x="32.609804" y="40.373391"/><rect height="16.837788" rx="2.66112" stroke-width="1.1088" width="16.151802" x="100.830278" y="12.331848"/><rect height="14.87488" rx="2.66112" stroke-width="1.1088" width="16.151802" x="32.609804" y="40.373391"/><rect height="12.070725" rx="2.66112" stroke-width="1.1088" width="16.151802" x="100.830278" y="12.051433"/><path d="m41.370649 74.0296736h67.672519" stroke-linecap="square" stroke-width="1.1088"/><path d="m.68494452 77.8152819h20.82231338" stroke-linecap="square" stroke-width="1.1088"/><path d="m.68494452 52.8583086h20.82231338" stroke-linecap="square" stroke-width="1.1088"/><path d="m.68494452 25.3775964h23.83606928" stroke-linecap="square" stroke-width="1.1088"/><path d="m113.707235 34.765083h7.932468v31.41939h-7.932468z" stroke-width="1.1088"/><path d="m41.377093 65.330364h67.65963v17.398618h-67.65963z" stroke-width="1.1088"/><path d="m42.746983 4.480216h12.59009v23.567758h-12.59009z" stroke-width="1.1088"/><path d="m44.938805 1.395646h8.206445v2.817016h-8.206445z" stroke-width="1.1088"/><path d="m76.994209.5544h17.521691v20.202773h-17.521691z" stroke-width="1.1088"/></g><path d="m81.097431 5.327893h2.739778v2.523739h-2.739778z" fill="#2c3e50"/><path d="m87.672899 5.327893h2.739778v2.523739h-2.739778z" fill="#2c3e50"/><path d="m5.89052288 10.6557864v-6.72997038h38.49388202" stroke="#2c3e50" stroke-width="1.44"/><path d="m95.0702994 4.76706231h6.0275116" stroke="#2c3e50" stroke-width="1.44"/><path d="m110.961012 4.76706231 14.109857.14020772v84.40504447h-118.4954016v-6.0289317" stroke="#2c3e50" stroke-width="1.44"/><path d="m6.5754674 62.8130564v-5.1232951" stroke="#2c3e50" stroke-width="1.44"/><path d="m6.65766074 37.7826409v-4.7826409" stroke="#2c3e50" stroke-width="1.44"/><path d="m125.070869 89.3123145v5.9573266" stroke="#2c3e50" stroke-width="1.44"/><path d="m125.070869 94.5h-118.4954016v-6.1154975" stroke="#2c3e50" stroke-width="1.44"/><path d="m53.6996504 3.92581602h22.7401581" fill="#07889b" stroke="#2c3e50" stroke-width="1.44"/></g></svg>